<svg width="1600" height="900" viewBox="0 0 1600 900" fill="none" xmlns="http://www.w3.org/2000/svg">
  <defs>
    <linearGradient id="bg" x1="180" y1="120" x2="1400" y2="780" gradientUnits="userSpaceOnUse">
      <stop stop-color="#121826"/>
      <stop offset="0.58" stop-color="#0E1320"/>
      <stop offset="1" stop-color="#0B1018"/>
    </linearGradient>
    <radialGradient id="glowA" cx="0" cy="0" r="1" gradientUnits="userSpaceOnUse" gradientTransform="translate(1250 240) rotate(90) scale(280 380)">
      <stop stop-color="#6E7EA3" stop-opacity="0.34"/>
      <stop offset="1" stop-color="#6E7EA3" stop-opacity="0"/>
    </radialGradient>
    <radialGradient id="glowB" cx="0" cy="0" r="1" gradientUnits="userSpaceOnUse" gradientTransform="translate(350 720) rotate(90) scale(220 320)">
      <stop stop-color="#3E556F" stop-opacity="0.26"/>
      <stop offset="1" stop-color="#3E556F" stop-opacity="0"/>
    </radialGradient>
    <linearGradient id="strokeA" x1="0" y1="0" x2="1" y2="1">
      <stop stop-color="#7C8CA8" stop-opacity="0.22"/>
      <stop offset="1" stop-color="#7C8CA8" stop-opacity="0.02"/>
    </linearGradient>
    <filter id="blur" x="-20%" y="-20%" width="140%" height="140%">
      <feGaussianBlur stdDeviation="24"/>
    </filter>
  </defs>

  <rect width="1600" height="900" fill="url(#bg)"/>
  <rect x="112" y="104" width="1376" height="692" rx="28" fill="rgba(255,255,255,0.01)" stroke="url(#strokeA)"/>

  <g opacity="0.22">
    <path d="M112 232H1488" stroke="#A3B1C8" stroke-opacity="0.12"/>
    <path d="M112 360H1488" stroke="#A3B1C8" stroke-opacity="0.12"/>
    <path d="M112 488H1488" stroke="#A3B1C8" stroke-opacity="0.12"/>
    <path d="M112 616H1488" stroke="#A3B1C8" stroke-opacity="0.12"/>
    <path d="M112 744H1488" stroke="#A3B1C8" stroke-opacity="0.12"/>
    <path d="M304 104V796" stroke="#A3B1C8" stroke-opacity="0.08"/>
    <path d="M560 104V796" stroke="#A3B1C8" stroke-opacity="0.08"/>
    <path d="M816 104V796" stroke="#A3B1C8" stroke-opacity="0.08"/>
    <path d="M1072 104V796" stroke="#A3B1C8" stroke-opacity="0.08"/>
    <path d="M1328 104V796" stroke="#A3B1C8" stroke-opacity="0.08"/>
  </g>

  <circle cx="1250" cy="240" r="280" fill="url(#glowA)" filter="url(#blur)"/>
  <circle cx="340" cy="720" r="220" fill="url(#glowB)" filter="url(#blur)"/>

  <rect x="904" y="212" width="366" height="194" rx="28" fill="#121927" fill-opacity="0.68" stroke="#7281A0" stroke-opacity="0.14"/>
  <rect x="952" y="276" width="184" height="14" rx="7" fill="#7382A8" fill-opacity="0.44"/>
  <rect x="952" y="314" width="244" height="10" rx="5" fill="#9EABC3" fill-opacity="0.16"/>
  <rect x="952" y="342" width="196" height="10" rx="5" fill="#9EABC3" fill-opacity="0.12"/>

  <rect x="242" y="512" width="332" height="188" rx="24" fill="#0E1420" fill-opacity="0.64" stroke="#7382A8" stroke-opacity="0.12"/>
  <rect x="286" y="566" width="128" height="12" rx="6" fill="#7382A8" fill-opacity="0.42"/>
  <rect x="286" y="604" width="220" height="10" rx="5" fill="#9EABC3" fill-opacity="0.14"/>
  <rect x="286" y="632" width="176" height="10" rx="5" fill="#9EABC3" fill-opacity="0.12"/>
</svg>
